<mxfile host="app.diagrams.net" modified="2024-05-27T18:52:05.992Z" agent="Mozilla/5.0 (Macintosh; Intel Mac OS X 10_15_7) AppleWebKit/537.36 (KHTML, like Gecko) Chrome/125.0.0.0 Safari/537.36" etag="fDM7m56Sc-TgovkCPqGs" version="24.4.4" type="github" pages="2">
  <diagram name="Page-1" id="jEsJj8F_owqUC-YUfBDm" />
  <diagram id="aIiD4AK1y-xOg1u46-KG" name="Page-2">
    <mxGraphModel dx="2074" dy="1243" grid="1" gridSize="10" guides="1" tooltips="1" connect="1" arrows="1" fold="1" page="1" pageScale="1" pageWidth="1169" pageHeight="827" math="0" shadow="0">
      <root>
        <mxCell id="0" />
        <mxCell id="1" parent="0" />
      </root>
    </mxGraphModel>
  </diagram>
</mxfile>
